# xmcd CD database file
#
# Track frame offsets:
#	150
#	6842
#	20915
#	39572
#	57395
#	77380
#	93417
#	110637
#	133232
#	153417
#	176035
#	196087
#	221765
#	242875
#	263282
#
# Disc length: 3840 seconds
#
# Revision: 1
# Processed by: cddbd v1.5.1PL2 Copyright (c) Steve Scherf et al.
# Submitted via: CDex 1.50
#
DISCID=cb0efe0f
DTITLE=倖田來未 - secret
DYEAR=2005
DGENRE=JPop
TTITLE0=01 - Intro〜Get down〜
TTITLE1=02 - キューティーハニー
TTITLE2=03 - Hot Stuff feat.KM-MARKIT
TTITLE3=04 - Selfish
TTITLE4=05 - hands
TTITLE5=06 - Hearty・・・
TTITLE6=07 - SHAKE IT
TTITLE7=08 - 奇跡
TTITLE8=09 - Trust you
TTITLE9=10 - Chase
TTITLE10=11 - LOVE HOLIC
TTITLE11=12 - 24
TTITLE12=13 - Let's Party
TTITLE13=14 - Believe
TTITLE14=15 - Through the sky
EXTD=YEAR: 2005
EXTT0=
EXTT1=
EXTT2=
EXTT3=
EXTT4=
EXTT5=
EXTT6=
EXTT7=
EXTT8=
EXTT9=
EXTT10=
EXTT11=
EXTT12=
EXTT13=
EXTT14=
PLAYORDER=
